HIERARCHY
ROOT Hips
{
	OFFSET 0.00000 0.00000 0.00000
	CHANNELS 6 Xposition Yposition Zposition Zrotation Yrotation Xrotation 
	JOINT LHipJoint
	{
		OFFSET 0 0 0
		CHANNELS 3 Zrotation Yrotation Xrotation
		JOINT LeftUpLeg
		{
			OFFSET 1.85742 -1.74412 1.01653
			CHANNELS 3 Zrotation Yrotation Xrotation
			JOINT LeftLeg
			{
				OFFSET 2.54803 -7.00067 0.00000
				CHANNELS 3 Zrotation Yrotation Xrotation
				JOINT LeftFoot
				{
					OFFSET 2.51202 -6.90173 0.00000
					CHANNELS 3 Zrotation Yrotation Xrotation
					JOINT LeftToeBase
					{
						OFFSET 0.17547 -0.48209 1.64281
						CHANNELS 3 Zrotation Yrotation Xrotation
						End Site
						{
							OFFSET 0.00000 -0.00000 0.86587
						}
					}
				}
			}
		}
	}
	JOINT RHipJoint
	{
		OFFSET 0 0 0
		CHANNELS 3 Zrotation Yrotation Xrotation
		JOINT RightUpLeg
		{
			OFFSET -1.95533 -1.74413 1.01654
			CHANNELS 3 Zrotation Yrotation Xrotation
			JOINT RightLeg
			{
				OFFSET -2.49465 -6.85400 0.00000
				CHANNELS 3 Zrotation Yrotation Xrotation
				JOINT RightFoot
				{
					OFFSET -2.54783 -7.00010 0.00000
					CHANNELS 3 Zrotation Yrotation Xrotation
					JOINT RightToeBase
					{
						OFFSET -0.18513 -0.50864 1.69288
						CHANNELS 3 Zrotation Yrotation Xrotation
						End Site
						{
							OFFSET -0.00000 -0.00000 0.89242
						}
					}
				}
			}
		}
	}
	JOINT LowerBack
	{
		OFFSET 0 0 0
		CHANNELS 3 Zrotation Yrotation Xrotation
		JOINT Spine
		{
			OFFSET 0.02173 2.16290 -0.15998
			CHANNELS 3 Zrotation Yrotation Xrotation
			JOINT Spine1
			{
				OFFSET 0.00940 2.17323 -0.00467
				CHANNELS 3 Zrotation Yrotation Xrotation
				JOINT Neck
				{
					OFFSET 0 0 0
					CHANNELS 3 Zrotation Yrotation Xrotation
					JOINT Neck1
					{
						OFFSET 0.01475 1.85823 0.31113
						CHANNELS 3 Zrotation Yrotation Xrotation
						JOINT Head
						{
							OFFSET 0.01902 1.88783 -0.37187
							CHANNELS 3 Zrotation Yrotation Xrotation
							End Site
							{
								OFFSET 0.00489 1.93211 -0.16169
							}
						}
					}
				}
				JOINT LeftShoulder
				{
					OFFSET 0 0 0
					CHANNELS 3 Zrotation Yrotation Xrotation
					JOINT LeftArm
					{
						OFFSET 3.34199 1.32384 -0.07862
						CHANNELS 3 Zrotation Yrotation Xrotation
						JOINT LeftForeArm
						{
							OFFSET 5.27950 -0.00000 0.00000
							CHANNELS 3 Zrotation Yrotation Xrotation
							JOINT LeftHand
							{
								OFFSET 3.53504 -0.00000 0.00000
								CHANNELS 3 Zrotation Yrotation Xrotation
								JOINT LeftFingerBase
								{
									OFFSET 0 0 0
									CHANNELS 3 Zrotation Yrotation Xrotation
									JOINT LeftHandIndex1
									{
										OFFSET 0.66795 -0.00000 0.00000
										CHANNELS 3 Zrotation Yrotation Xrotation
										End Site
										{
											OFFSET 0.53852 -0.00000 0.00000
										}
									}
								}
								JOINT LThumb
								{
									OFFSET 0 0 0
									CHANNELS 3 Zrotation Yrotation Xrotation
									End Site
									{
										OFFSET 0.54674 -0.00000 0.54674
									}
								}
							}
						}
					}
				}
				JOINT RightShoulder
				{
					OFFSET 0 0 0
					CHANNELS 3 Zrotation Yrotation Xrotation
					JOINT RightArm
					{
						OFFSET -3.16149 1.45719 -0.50507
						CHANNELS 3 Zrotation Yrotation Xrotation
						JOINT RightForeArm
						{
							OFFSET -5.25035 -0.00000 0.00000
							CHANNELS 3 Zrotation Yrotation Xrotation
							JOINT RightHand
							{
								OFFSET -3.58884 -0.00000 0.00000
								CHANNELS 3 Zrotation Yrotation Xrotation
								JOINT RightFingerBase
								{
									OFFSET 0 0 0
									CHANNELS 3 Zrotation Yrotation Xrotation
									JOINT RightHandIndex1
									{
										OFFSET -0.77924 -0.00000 0.00000
										CHANNELS 3 Zrotation Yrotation Xrotation
										End Site
										{
											OFFSET -0.62824 -0.00000 0.00000
										}
									}
								}
								JOINT RThumb
								{
									OFFSET 0 0 0
									CHANNELS 3 Zrotation Yrotation Xrotation
									End Site
									{
										OFFSET -0.63783 -0.00000 0.63783
									}
								}
							}
						}
					}
				}
			}
		}
	}
}
MOTION
Frames: 15
Frame Time: .0083333
4.1480 17.7505 -9.3872 -2.6772 -24.5588 17.2553 0.0000 0.0000 0.0000 -4.5112 -24.4883 -14.9082 0.9577 6.2315 17.4576 -0.4111 17.0676 -19.9261 2.7968 -10.3586 -30.1458 0.0000 0.0000 0.0000 17.1015 9.7682 -22.9987 -0.5673 -4.8240 13.4071 0.1266 -7.0731 -6.0224 -0.3836 3.9776 -11.0136 5.2086 0.9394 9.9860 -2.2945 1.5968 5.5409 -5.4771 0.9275 0.4055 -1.5463 2.3983 -19.8429 -7.0178 7.0806 39.2685 -1.5668 1.4678 18.4310 -0.0000 -0.0000 0.0000 -89.8401 -32.3735 101.7208 62.7805 -57.0064 -36.6641 -0.0000 -0.0000 15.9409 27.6710 35.8511 17.0723 -7.1250 0.0000 -0.0000 -8.5163 69.0163 -4.9148 -0.0000 -0.0000 0.0000 34.4021 39.8480 51.7173 -57.6325 55.6454 -32.3788 0.0000 0.0000 5.8007 -14.2756 33.8333 -8.0633 7.1250 -0.0000 -0.0000 10.0380 4.2188 10.9129
4.1408 17.7488 -9.3954 -2.6544 -24.3725 17.2340 0.0000 0.0000 0.0000 -4.4616 -24.4107 -15.0609 0.9641 6.2516 17.5162 -0.4138 16.9116 -19.6154 2.9462 -10.6075 -30.9674 0.0000 0.0000 0.0000 17.0978 9.8401 -23.1036 -0.5900 -4.9176 13.6738 0.1375 -7.3531 -6.2297 -0.3722 3.9185 -10.8474 5.4023 1.0382 10.0991 -2.2663 1.7450 5.6912 -5.5718 1.0127 0.5287 -1.6097 2.2384 -19.9324 -7.0401 6.8781 39.2113 -1.6046 1.3794 18.4098 0.0000 -0.0000 0.0000 -90.0742 -32.6247 102.1409 62.9865 -57.0546 -36.8369 -0.0000 -0.0000 15.7645 27.4490 36.1767 17.0461 -7.1250 0.0000 -0.0000 -9.1370 69.2707 -5.3274 0.0000 -0.0000 0.0000 33.5531 39.6502 51.5508 -58.1431 55.7945 -32.8006 0.0000 0.0000 5.3211 -14.7754 33.7510 -8.3366 7.1250 -0.0000 -0.0000 9.7535 4.2224 10.5951
4.1324 17.7468 -9.4040 -2.7008 -24.2229 17.2750 0.0000 0.0000 0.0000 -4.3177 -24.3177 -15.2188 0.9670 6.2608 17.5430 -0.3857 16.6665 -19.5282 2.9352 -10.5894 -30.9073 0.0000 0.0000 0.0000 17.2523 9.5781 -23.3674 -0.6095 -4.9970 13.9000 0.1256 -7.1588 -6.2936 -0.3367 3.7288 -10.3148 5.5673 1.1603 10.2091 -2.1635 1.9227 5.8121 -5.5741 1.1094 0.6235 -1.7742 2.0773 -19.9920 -7.0660 6.7175 39.1806 -1.6185 1.2913 18.3960 -0.0000 0.0000 0.0000 -90.4479 -32.8239 102.5578 63.1296 -57.0878 -36.9571 -0.0000 -0.0000 15.7354 27.0062 36.5522 16.8847 -7.1250 0.0000 -0.0000 -10.1241 69.5008 -5.9591 -0.0000 0.0000 0.0000 32.5948 39.3915 51.2059 -58.7016 55.9539 -33.2630 0.0000 0.0000 5.1751 -15.0992 33.6144 -8.4951 7.1250 -0.0000 -0.0000 9.5595 4.1429 10.3662
4.1242 17.7473 -9.4121 -2.6755 -24.0951 17.3212 0.0000 0.0000 0.0000 -4.2385 -24.2728 -15.3394 0.9598 6.2380 17.4767 -0.3538 16.4432 -19.5306 2.8198 -10.3974 -30.2735 0.0000 0.0000 0.0000 17.2676 9.5115 -23.5546 -0.6232 -5.0519 14.0566 0.1224 -7.1195 -6.3467 -0.3085 3.5710 -9.8727 5.7074 1.2539 10.3666 -2.1002 2.0651 5.8473 -5.6042 1.1828 0.5984 -1.9809 1.9514 -19.9367 -7.0329 6.5934 39.1406 -1.5893 1.2220 18.3420 0.0000 -0.0000 0.0000 -90.7536 -32.9304 102.9353 63.2113 -57.1066 -37.0256 -0.0000 -0.0000 15.6104 26.5470 36.6526 16.6070 -7.1250 0.0000 -0.0000 -10.8538 69.4531 -6.3805 0.0000 -0.0000 0.0000 31.8487 39.0650 50.8687 -59.2970 56.1197 -33.7568 0.0000 0.0000 5.0056 -15.0048 33.5468 -8.4256 7.1250 -0.0000 -0.0000 9.6042 4.0597 10.4030
4.1166 17.7488 -9.4161 -2.5117 -23.9607 17.3217 0.0000 0.0000 0.0000 -4.3132 -24.3398 -15.4282 0.9514 6.2117 17.3998 -0.3519 16.3650 -19.4179 2.8081 -10.3778 -30.2091 0.0000 0.0000 0.0000 17.1115 9.4868 -23.7493 -0.6428 -5.1293 14.2776 0.1233 -7.1872 -6.4749 -0.2916 3.4728 -9.5979 5.6358 1.3250 10.4099 -1.9963 2.1539 5.9115 -5.4617 1.2265 0.6464 -2.1722 1.8639 -19.8341 -7.1597 6.5817 39.0698 -1.6141 1.1786 18.2774 0.0000 -0.0000 0.0000 -91.1292 -33.0460 103.2845 63.3059 -57.1284 -37.1051 -0.0000 -0.0000 15.2895 26.5626 36.5969 16.5971 -7.1250 0.0000 -0.0000 -10.7739 69.4041 -6.3213 0.0000 -0.0000 0.0000 31.0291 38.8163 50.5616 -59.8907 56.2807 -34.2502 0.0000 0.0000 4.6192 -14.8326 33.4498 -8.3048 7.1250 -0.0000 -0.0000 9.6889 3.9341 10.4775
4.1063 17.7484 -9.4166 -2.3482 -23.8230 17.2964 0.0000 0.0000 0.0000 -4.4166 -24.3935 -15.4580 0.9408 6.1778 17.3011 -0.3678 16.3536 -19.2001 2.9043 -10.5386 -30.7390 0.0000 0.0000 0.0000 16.9885 9.3682 -23.9196 -0.6638 -5.2105 14.5098 0.1210 -7.2015 -6.6135 -0.2849 3.4326 -9.4857 5.6481 1.3626 10.3930 -1.9733 2.2009 6.0174 -5.4458 1.2565 0.7731 -2.1824 1.8235 -19.7755 -7.3655 6.6061 39.0187 -1.7018 1.1635 18.2500 0.0000 0.0000 0.0000 -91.3310 -33.2498 103.5645 63.3879 -57.1472 -37.1740 -0.0000 -0.0000 14.9807 26.7736 36.5958 16.7413 -7.1250 0.0000 -0.0000 -10.4866 69.4702 -6.1670 0.0000 0.0000 0.0000 30.2298 38.6800 50.3727 -60.6002 56.4678 -34.8409 0.0000 0.0000 4.3111 -14.9948 33.2329 -8.3511 7.1250 -0.0000 -0.0000 9.5753 3.7471 10.3219
4.0940 17.7464 -9.4188 -2.2883 -23.6804 17.2774 0.0000 0.0000 0.0000 -4.4214 -24.3352 -15.4844 0.9313 6.1475 17.2130 -0.3620 16.1992 -19.0022 2.9541 -10.6204 -31.0101 0.0000 0.0000 0.0000 17.0023 9.2148 -24.0463 -0.6807 -5.2752 14.6952 0.1157 -7.1471 -6.7159 -0.3005 3.5249 -9.7438 5.7328 1.3401 10.4399 -1.9429 2.1782 6.1127 -5.4597 1.2514 0.8478 -2.1840 1.8431 -19.7690 -7.5281 6.7044 38.9872 -1.7562 1.1817 18.2490 -0.0000 -0.0000 0.0000 -91.3462 -33.4232 103.5665 63.5456 -57.1830 -37.3065 -0.0000 -0.0000 14.7756 26.9060 36.5494 16.8149 -7.1250 0.0000 -0.0000 -10.2580 69.4668 -6.0307 -0.0000 -0.0000 0.0000 29.4443 38.6966 50.3783 -61.4520 56.6846 -35.5519 0.0000 0.0000 4.0828 -15.3267 33.0505 -8.5011 7.1250 -0.0000 -0.0000 9.3709 3.6233 10.0766
4.0853 17.7447 -9.4233 -2.2651 -23.5360 17.2787 0.0000 0.0000 0.0000 -4.3778 -24.2738 -15.5729 0.9282 6.1375 17.1839 -0.3545 16.0299 -18.8010 2.9961 -10.6888 -31.2373 0.0000 0.0000 0.0000 17.0390 9.1058 -24.1395 -0.6892 -5.3075 14.7876 0.1140 -7.1513 -6.7955 -0.3131 3.5969 -9.9454 5.8359 1.2857 10.5775 -1.8927 2.1216 6.1487 -5.4648 1.2242 0.8059 -2.1651 1.8835 -19.7383 -7.7068 6.8286 38.9475 -1.8163 1.2114 18.2405 -0.0000 0.0000 0.0000 -91.2500 -33.3998 103.3424 63.9636 -57.2768 -37.6579 -0.0000 -0.0000 14.6911 26.9738 36.5037 16.8443 -7.1250 0.0000 -0.0000 -10.1177 69.4429 -5.9423 -0.0000 0.0000 0.0000 28.9367 38.8204 50.4900 -61.7169 56.7503 -35.7733 0.0000 0.0000 3.9031 -15.7948 33.1056 -8.7828 7.1250 -0.0000 -0.0000 9.1165 3.7597 9.8165
4.0797 17.7439 -9.4272 -2.2683 -23.4372 17.3036 0.0000 0.0000 0.0000 -4.3135 -24.2584 -15.6759 0.9310 6.1466 17.2103 -0.3539 15.9722 -18.7063 3.0417 -10.7623 -31.4822 0.0000 0.0000 0.0000 17.0723 9.0787 -24.1792 -0.6907 -5.3132 14.8041 0.1150 -7.2066 -6.8805 -0.2954 3.4946 -9.6590 5.9796 1.2598 10.7392 -1.8699 2.1085 6.1522 -5.5271 1.2182 0.7261 -2.0223 1.9050 -19.6946 -7.9299 6.8935 38.9248 -1.9329 1.2302 18.2427 0.0000 0.0000 0.0000 -91.2021 -33.2643 103.1527 64.3912 -57.3708 -38.0179 -0.0000 -0.0000 14.8272 26.8211 36.5033 16.7394 -7.1250 0.0000 -0.0000 -10.3251 69.3942 -6.0537 0.0000 0.0000 0.0000 28.7620 38.9195 50.5796 -61.3689 56.6638 -35.4824 0.0000 0.0000 3.9295 -16.5184 33.3387 -9.2571 7.1250 -0.0000 -0.0000 8.7416 4.1209 9.4546
4.0748 17.7432 -9.4295 -2.3096 -23.3762 17.3635 0.0000 0.0000 0.0000 -4.2157 -24.2255 -15.7888 0.9353 6.1602 17.2501 -0.3412 15.8961 -18.7373 3.0454 -10.7682 -31.5021 0.0000 0.0000 0.0000 17.1241 9.1082 -24.2065 -0.6895 -5.3084 14.7902 0.1157 -7.2430 -6.9365 -0.2837 3.4256 -9.4659 6.0085 1.2244 10.8047 -1.7574 2.0673 6.1934 -5.4225 1.1969 0.7245 -2.0720 1.9238 -19.7467 -8.0284 6.9879 38.9354 -1.9515 1.2445 18.2762 -0.0000 0.0000 0.0000 -91.3076 -33.1710 102.9024 64.7412 -57.4464 -38.3128 -0.0000 -0.0000 14.9414 26.7589 36.2903 16.6175 -7.1250 0.0000 -0.0000 -10.1898 69.1649 -5.9213 -0.0000 0.0000 0.0000 28.4050 39.0987 50.6795 -61.3080 56.6485 -35.4315 0.0000 0.0000 3.9629 -17.0759 33.4121 -9.6008 7.1250 -0.0000 -0.0000 8.4412 4.2965 9.1466
4.0697 17.7428 -9.4306 -2.3662 -23.3349 17.4198 0.0000 0.0000 0.0000 -4.1172 -24.1657 -15.8871 0.9396 6.1741 17.2905 -0.3328 15.8071 -18.6906 3.0742 -10.8143 -31.6561 0.0000 0.0000 0.0000 17.1982 9.1220 -24.2226 -0.6873 -5.3003 14.7671 0.1164 -7.2561 -6.9381 -0.2927 3.4788 -9.6148 6.1801 1.1261 10.8235 -1.7433 1.9522 6.2446 -5.4945 1.1461 0.7600 -2.1770 1.9995 -19.7840 -7.9330 7.1052 38.9272 -1.8626 1.2867 18.2770 -0.0000 0.0000 0.0000 -91.1236 -33.1081 102.5235 65.1653 -57.5362 -38.6705 -0.0000 -0.0000 14.7489 27.1447 35.9477 16.7510 -7.1250 0.0000 -0.0000 -9.3256 68.9471 -5.3702 -0.0000 0.0000 0.0000 28.1842 39.4284 50.8972 -61.4854 56.6929 -35.5798 0.0000 0.0000 3.9337 -17.1845 33.3368 -9.6455 7.1250 -0.0000 -0.0000 8.3717 4.2414 9.0622
4.0643 17.7429 -9.4321 -2.4392 -23.3177 17.4555 0.0000 0.0000 0.0000 -4.0173 -24.1124 -15.9233 0.9416 6.1803 17.3085 -0.3293 15.7538 -18.6433 3.1017 -10.8579 -31.8022 0.0000 0.0000 0.0000 17.3097 9.0944 -24.2238 -0.6865 -5.2973 14.7584 0.1140 -7.2153 -6.9434 -0.2969 3.5039 -9.6849 6.1801 1.0975 10.9545 -1.6099 1.9227 6.2451 -5.3553 1.1256 0.6794 -2.3184 2.0492 -19.7388 -7.9376 7.2338 38.9129 -1.8121 1.3172 18.2604 -0.0000 -0.0000 0.0000 -91.1536 -32.9828 102.3229 65.4488 -57.5952 -38.9097 -0.0000 -0.0000 14.5266 27.4839 35.6354 16.8613 -7.1250 0.0000 -0.0000 -8.5671 68.7425 -4.8914 -0.0000 -0.0000 0.0000 27.8203 39.5864 51.1249 -61.7554 56.7599 -35.8056 0.0000 0.0000 3.9000 -17.4030 33.2105 -9.7413 7.1250 -0.0000 -0.0000 8.2346 4.1562 8.8994
4.0591 17.7430 -9.4334 -2.5067 -23.2865 17.5206 0.0000 0.0000 0.0000 -3.8989 -24.1143 -15.9592 0.9388 6.1714 17.2824 -0.3210 15.7353 -18.7187 3.0694 -10.8066 -31.6305 0.0000 0.0000 0.0000 17.4228 9.0309 -24.2982 -0.6892 -5.3073 14.7871 0.1106 -7.1476 -6.9273 -0.3038 3.5439 -9.7969 6.3217 1.0645 11.0119 -1.5831 1.8948 6.2625 -5.4065 1.1148 0.6683 -2.2705 2.0832 -19.7042 -7.9904 7.2780 38.8463 -1.8332 1.3382 18.2209 0.0000 0.0000 0.0000 -90.9808 -32.9164 102.1360 65.7612 -57.6593 -39.1736 -0.0000 -0.0000 14.4745 27.5916 35.4037 16.8442 -7.1250 0.0000 -0.0000 -8.2067 68.5443 -4.6479 0.0000 0.0000 0.0000 27.5787 39.6843 51.3210 -62.1870 56.8651 -36.1667 0.0000 0.0000 3.9099 -17.9557 32.9963 -10.0086 7.1250 -0.0000 -0.0000 7.8998 4.0463 8.5166
4.0513 17.7455 -9.4344 -2.5427 -23.2656 17.5903 0.0000 0.0000 0.0000 -3.7999 -24.1338 -15.9998 0.9347 6.1584 17.2447 -0.3257 15.7688 -18.7153 3.0581 -10.7884 -31.5697 0.0000 0.0000 0.0000 17.4715 9.0242 -24.3948 -0.6938 -5.3246 14.8367 0.1066 -7.0927 -6.9689 -0.2406 3.1569 -8.7158 6.4847 0.9927 10.9851 -1.6260 1.8116 6.2997 -5.5352 1.0812 0.7199 -2.1137 2.1573 -19.6664 -8.0815 7.3482 38.7233 -1.8840 1.3820 18.1561 0.0000 -0.0000 0.0000 -90.6066 -32.8865 101.8212 66.1412 -57.7359 -39.4947 -0.0000 -0.0000 14.5020 27.7552 35.2961 16.9125 -7.1250 0.0000 -0.0000 -7.8880 68.4876 -4.4564 0.0000 -0.0000 0.0000 27.4166 39.8913 51.5701 -62.7144 56.9909 -36.6087 0.0000 0.0000 4.0040 -18.7348 32.7420 -10.3946 7.1250 -0.0000 -0.0000 7.4319 3.9411 7.9908
4.0416 17.7477 -9.4360 -2.5395 -23.2991 17.6103 0.0000 0.0000 0.0000 -3.7821 -24.0205 -16.0284 0.9319 6.1495 17.2189 -0.3315 15.7356 -18.5830 3.0866 -10.8340 -31.7219 0.0000 0.0000 0.0000 17.4632 9.1051 -24.4134 -0.6969 -5.3363 14.8702 0.1030 -7.0713 -7.0671 -0.1772 2.7114 -7.4763 6.3697 1.0174 11.0752 -1.5580 1.8392 6.3036 -5.4033 1.0886 0.6707 -2.0652 2.1603 -19.6828 -8.1277 7.3536 38.7278 -1.9134 1.3846 18.1692 -0.0000 -0.0000 0.0000 -90.5464 -32.7980 101.8090 66.4396 -57.7950 -39.7471 -0.0000 -0.0000 14.2907 28.4813 35.4085 17.4503 -7.1250 0.0000 -0.0000 -6.9958 68.8267 -4.0040 -0.0000 -0.0000 0.0000 27.0648 39.8610 51.7200 -63.3805 57.1454 -37.1677 0.0000 0.0000 4.0197 -19.5513 32.4427 -10.7862 7.1250 -0.0000 -0.0000 6.9347 3.8007 7.4323
